<mxfile host="app.diagrams.net" modified="2023-09-04T04:50:23.317Z" agent="Mozilla/5.0 (X11; Ubuntu; Linux x86_64; rv:109.0) Gecko/20100101 Firefox/117.0" etag="F6B2raxXnEX8bNVgJry3" version="21.7.2" type="github">
  <diagram name="Page-1" id="qnlmp7pOQC3rA670gsTy">
    <mxGraphModel dx="1114" dy="615" grid="1" gridSize="10" guides="1" tooltips="1" connect="1" arrows="1" fold="1" page="1" pageScale="1" pageWidth="1390" pageHeight="980" math="0" shadow="0">
      <root>
        <mxCell id="0" />
        <mxCell id="1" parent="0" />
        <mxCell id="yhEKtUd-_oAmwv37G5sJ-3" style="edgeStyle=orthogonalEdgeStyle;rounded=0;orthogonalLoop=1;jettySize=auto;html=1;exitX=1;exitY=0.25;exitDx=0;exitDy=0;entryX=0;entryY=0;entryDx=0;entryDy=0;" edge="1" parent="1" source="yhEKtUd-_oAmwv37G5sJ-1" target="yhEKtUd-_oAmwv37G5sJ-2">
          <mxGeometry relative="1" as="geometry" />
        </mxCell>
        <mxCell id="yhEKtUd-_oAmwv37G5sJ-5" value="CARTA ACCION" style="edgeLabel;html=1;align=center;verticalAlign=middle;resizable=0;points=[];" vertex="1" connectable="0" parent="yhEKtUd-_oAmwv37G5sJ-3">
          <mxGeometry x="0.2443" y="-2" relative="1" as="geometry">
            <mxPoint as="offset" />
          </mxGeometry>
        </mxCell>
        <mxCell id="yhEKtUd-_oAmwv37G5sJ-4" style="edgeStyle=orthogonalEdgeStyle;rounded=0;orthogonalLoop=1;jettySize=auto;html=1;exitX=1;exitY=0.75;exitDx=0;exitDy=0;entryX=0;entryY=1;entryDx=0;entryDy=0;" edge="1" parent="1" source="yhEKtUd-_oAmwv37G5sJ-1" target="yhEKtUd-_oAmwv37G5sJ-2">
          <mxGeometry relative="1" as="geometry" />
        </mxCell>
        <mxCell id="yhEKtUd-_oAmwv37G5sJ-11" value="POSICIÓN" style="edgeLabel;html=1;align=center;verticalAlign=middle;resizable=0;points=[];" vertex="1" connectable="0" parent="yhEKtUd-_oAmwv37G5sJ-4">
          <mxGeometry x="0.2136" relative="1" as="geometry">
            <mxPoint as="offset" />
          </mxGeometry>
        </mxCell>
        <mxCell id="yhEKtUd-_oAmwv37G5sJ-1" value="JUGADOR" style="rounded=0;whiteSpace=wrap;html=1;" vertex="1" parent="1">
          <mxGeometry x="160" y="270" width="120" height="60" as="geometry" />
        </mxCell>
        <mxCell id="yhEKtUd-_oAmwv37G5sJ-12" style="edgeStyle=orthogonalEdgeStyle;rounded=0;orthogonalLoop=1;jettySize=auto;html=1;exitX=0.5;exitY=1;exitDx=0;exitDy=0;entryX=0.5;entryY=1;entryDx=0;entryDy=0;" edge="1" parent="1" source="yhEKtUd-_oAmwv37G5sJ-2" target="yhEKtUd-_oAmwv37G5sJ-1">
          <mxGeometry relative="1" as="geometry" />
        </mxCell>
        <mxCell id="yhEKtUd-_oAmwv37G5sJ-13" value="NUEVA POSICIÓN" style="edgeLabel;html=1;align=center;verticalAlign=middle;resizable=0;points=[];" vertex="1" connectable="0" parent="yhEKtUd-_oAmwv37G5sJ-12">
          <mxGeometry x="-0.14" y="4" relative="1" as="geometry">
            <mxPoint x="-18" y="-4" as="offset" />
          </mxGeometry>
        </mxCell>
        <mxCell id="yhEKtUd-_oAmwv37G5sJ-2" value="&lt;div&gt;CAMBIAR&amp;nbsp;&lt;/div&gt;&lt;div&gt;POSICIÓN&lt;/div&gt;" style="ellipse;whiteSpace=wrap;html=1;" vertex="1" parent="1">
          <mxGeometry x="510" y="260" width="120" height="80" as="geometry" />
        </mxCell>
        <mxCell id="yhEKtUd-_oAmwv37G5sJ-8" style="edgeStyle=orthogonalEdgeStyle;rounded=0;orthogonalLoop=1;jettySize=auto;html=1;entryX=0.5;entryY=0;entryDx=0;entryDy=0;" edge="1" parent="1" source="yhEKtUd-_oAmwv37G5sJ-7" target="yhEKtUd-_oAmwv37G5sJ-2">
          <mxGeometry relative="1" as="geometry" />
        </mxCell>
        <mxCell id="yhEKtUd-_oAmwv37G5sJ-7" value="&lt;u&gt;DATOS PARTIDA&lt;br&gt;&lt;/u&gt;" style="text;html=1;align=center;verticalAlign=middle;resizable=0;points=[];autosize=1;strokeColor=none;fillColor=none;" vertex="1" parent="1">
          <mxGeometry x="510" y="138" width="120" height="30" as="geometry" />
        </mxCell>
      </root>
    </mxGraphModel>
  </diagram>
</mxfile>
